<mxfile host="app.diagrams.net" modified="2023-07-03T12:10:02.381Z" agent="Mozilla/5.0 (Windows NT 10.0; Win64; x64) AppleWebKit/537.36 (KHTML, like Gecko) Chrome/114.0.0.0 Safari/537.36 Edg/114.0.1823.67" version="21.5.2" etag="4v_5YFp6HtCTbaBKx2qa" type="device">
  <diagram id="KikHW4FdOFnyS4c0Yq1n" name="Page-1">
    <mxGraphModel dx="1504" dy="1013" grid="0" gridSize="10" guides="1" tooltips="1" connect="1" arrows="1" fold="1" page="0" pageScale="1" pageWidth="850" pageHeight="1100" math="0" shadow="0">
      <root>
        <mxCell id="0" />
        <mxCell id="1" parent="0" />
        <mxCell id="qZAM8YZkkt0BZnQUHDg2-1" value="Application" style="rounded=0;whiteSpace=wrap;html=1;labelBackgroundColor=none;fillColor=#09555B;strokeColor=#BAC8D3;fontColor=#EEEEEE;" vertex="1" parent="1">
          <mxGeometry x="69" y="73" width="120" height="30" as="geometry" />
        </mxCell>
        <mxCell id="qZAM8YZkkt0BZnQUHDg2-2" value="Microsoft identity platform" style="rounded=0;whiteSpace=wrap;html=1;fillStyle=auto;labelBackgroundColor=none;fillColor=#09555B;strokeColor=#BAC8D3;fontColor=#EEEEEE;" vertex="1" parent="1">
          <mxGeometry x="266" y="23" width="400" height="30" as="geometry" />
        </mxCell>
        <mxCell id="qZAM8YZkkt0BZnQUHDg2-4" value="" style="endArrow=none;html=1;rounded=0;strokeWidth=5;labelBackgroundColor=none;strokeColor=#0B4D6A;fontColor=default;" edge="1" parent="1">
          <mxGeometry width="50" height="50" relative="1" as="geometry">
            <mxPoint x="127" y="630" as="sourcePoint" />
            <mxPoint x="126.5" y="114" as="targetPoint" />
          </mxGeometry>
        </mxCell>
        <mxCell id="qZAM8YZkkt0BZnQUHDg2-5" value="" style="endArrow=classic;html=1;rounded=0;labelBackgroundColor=none;strokeColor=#0B4D6A;fontColor=default;" edge="1" parent="1">
          <mxGeometry width="50" height="50" relative="1" as="geometry">
            <mxPoint x="131" y="199" as="sourcePoint" />
            <mxPoint x="360" y="200" as="targetPoint" />
          </mxGeometry>
        </mxCell>
        <mxCell id="qZAM8YZkkt0BZnQUHDg2-7" value="Pops up a browser dialog, &lt;br&gt;requests an authentication code" style="edgeLabel;html=1;align=center;verticalAlign=middle;resizable=0;points=[];labelBackgroundColor=none;fontColor=#EEEEEE;" vertex="1" connectable="0" parent="qZAM8YZkkt0BZnQUHDg2-5">
          <mxGeometry x="-0.3644" y="6" relative="1" as="geometry">
            <mxPoint x="25" y="-14" as="offset" />
          </mxGeometry>
        </mxCell>
        <mxCell id="qZAM8YZkkt0BZnQUHDg2-8" value="/token" style="rounded=0;whiteSpace=wrap;html=1;labelBackgroundColor=none;fillColor=#09555B;strokeColor=#BAC8D3;fontColor=#EEEEEE;" vertex="1" parent="1">
          <mxGeometry x="515" y="82.5" width="120" height="31" as="geometry" />
        </mxCell>
        <mxCell id="qZAM8YZkkt0BZnQUHDg2-9" value="/authorize" style="rounded=0;whiteSpace=wrap;html=1;labelBackgroundColor=none;fillColor=#09555B;strokeColor=#BAC8D3;fontColor=#EEEEEE;" vertex="1" parent="1">
          <mxGeometry x="307" y="82.5" width="120" height="31" as="geometry" />
        </mxCell>
        <mxCell id="qZAM8YZkkt0BZnQUHDg2-10" value="" style="endArrow=none;html=1;rounded=0;entryX=0.5;entryY=1;entryDx=0;entryDy=0;dashed=1;labelBackgroundColor=none;strokeColor=#0B4D6A;fontColor=default;" edge="1" parent="1" target="qZAM8YZkkt0BZnQUHDg2-9">
          <mxGeometry width="50" height="50" relative="1" as="geometry">
            <mxPoint x="360" y="630" as="sourcePoint" />
            <mxPoint x="400" y="214" as="targetPoint" />
          </mxGeometry>
        </mxCell>
        <mxCell id="qZAM8YZkkt0BZnQUHDg2-11" value="" style="endArrow=classic;html=1;rounded=0;labelBackgroundColor=none;strokeColor=#0B4D6A;fontColor=default;" edge="1" parent="1">
          <mxGeometry width="50" height="50" relative="1" as="geometry">
            <mxPoint x="362" y="233" as="sourcePoint" />
            <mxPoint x="130" y="233" as="targetPoint" />
          </mxGeometry>
        </mxCell>
        <mxCell id="qZAM8YZkkt0BZnQUHDg2-12" value="Returns authorization code" style="edgeLabel;html=1;align=center;verticalAlign=middle;resizable=0;points=[];labelBackgroundColor=none;fontColor=#EEEEEE;" vertex="1" connectable="0" parent="qZAM8YZkkt0BZnQUHDg2-11">
          <mxGeometry x="0.1995" y="-7" relative="1" as="geometry">
            <mxPoint x="12" y="-3" as="offset" />
          </mxGeometry>
        </mxCell>
        <mxCell id="qZAM8YZkkt0BZnQUHDg2-13" value="" style="endArrow=none;html=1;rounded=0;entryX=0.5;entryY=1;entryDx=0;entryDy=0;dashed=1;labelBackgroundColor=none;strokeColor=#0B4D6A;fontColor=default;" edge="1" parent="1">
          <mxGeometry width="50" height="50" relative="1" as="geometry">
            <mxPoint x="574" y="630" as="sourcePoint" />
            <mxPoint x="574.44" y="120" as="targetPoint" />
          </mxGeometry>
        </mxCell>
        <mxCell id="qZAM8YZkkt0BZnQUHDg2-14" value="" style="endArrow=classic;html=1;rounded=0;labelBackgroundColor=none;strokeColor=#0B4D6A;fontColor=default;" edge="1" parent="1">
          <mxGeometry width="50" height="50" relative="1" as="geometry">
            <mxPoint x="130" y="270" as="sourcePoint" />
            <mxPoint x="572.2222222222222" y="270" as="targetPoint" />
          </mxGeometry>
        </mxCell>
        <mxCell id="qZAM8YZkkt0BZnQUHDg2-15" value="Requests Oauth bearer token" style="text;html=1;align=center;verticalAlign=middle;resizable=0;points=[];autosize=1;strokeColor=none;fillColor=none;labelBackgroundColor=none;fontColor=#EEEEEE;" vertex="1" parent="1">
          <mxGeometry x="280" y="248" width="180" height="30" as="geometry" />
        </mxCell>
        <mxCell id="qZAM8YZkkt0BZnQUHDg2-16" value="" style="endArrow=classic;html=1;rounded=0;labelBackgroundColor=none;strokeColor=#0B4D6A;fontColor=default;" edge="1" parent="1">
          <mxGeometry width="50" height="50" relative="1" as="geometry">
            <mxPoint x="572.2222222222222" y="300" as="sourcePoint" />
            <mxPoint x="130" y="300" as="targetPoint" />
          </mxGeometry>
        </mxCell>
        <mxCell id="qZAM8YZkkt0BZnQUHDg2-17" value="Returns access token and refresh_token" style="edgeLabel;html=1;align=center;verticalAlign=middle;resizable=0;points=[];labelBackgroundColor=none;fontColor=#EEEEEE;" vertex="1" connectable="0" parent="qZAM8YZkkt0BZnQUHDg2-16">
          <mxGeometry x="0.4417" y="-7" relative="1" as="geometry">
            <mxPoint x="127" y="-3" as="offset" />
          </mxGeometry>
        </mxCell>
        <mxCell id="qZAM8YZkkt0BZnQUHDg2-18" value="Graph API" style="rounded=0;whiteSpace=wrap;html=1;labelBackgroundColor=none;fillColor=#09555B;strokeColor=#BAC8D3;fontColor=#EEEEEE;" vertex="1" parent="1">
          <mxGeometry x="720" y="86" width="120" height="27.5" as="geometry" />
        </mxCell>
        <mxCell id="qZAM8YZkkt0BZnQUHDg2-19" value="" style="endArrow=none;dashed=1;html=1;rounded=0;entryX=0.5;entryY=1;entryDx=0;entryDy=0;labelBackgroundColor=none;strokeColor=#0B4D6A;fontColor=default;" edge="1" parent="1" target="qZAM8YZkkt0BZnQUHDg2-18">
          <mxGeometry width="50" height="50" relative="1" as="geometry">
            <mxPoint x="780" y="630" as="sourcePoint" />
            <mxPoint x="470" y="260" as="targetPoint" />
          </mxGeometry>
        </mxCell>
        <mxCell id="qZAM8YZkkt0BZnQUHDg2-20" value="" style="endArrow=classic;html=1;rounded=0;labelBackgroundColor=none;strokeColor=#0B4D6A;fontColor=default;" edge="1" parent="1">
          <mxGeometry width="50" height="50" relative="1" as="geometry">
            <mxPoint x="130" y="340" as="sourcePoint" />
            <mxPoint x="780" y="340" as="targetPoint" />
          </mxGeometry>
        </mxCell>
        <mxCell id="qZAM8YZkkt0BZnQUHDg2-21" value="User is Authenticated. Call graph API with access token in authorization header" style="edgeLabel;html=1;align=center;verticalAlign=middle;resizable=0;points=[];labelBackgroundColor=none;fontColor=#EEEEEE;" vertex="1" connectable="0" parent="qZAM8YZkkt0BZnQUHDg2-20">
          <mxGeometry x="-0.3645" y="11" relative="1" as="geometry">
            <mxPoint x="123" as="offset" />
          </mxGeometry>
        </mxCell>
        <mxCell id="qZAM8YZkkt0BZnQUHDg2-22" value="" style="endArrow=classic;html=1;rounded=0;labelBackgroundColor=none;strokeColor=#0B4D6A;fontColor=default;" edge="1" parent="1">
          <mxGeometry width="50" height="50" relative="1" as="geometry">
            <mxPoint x="780" y="370" as="sourcePoint" />
            <mxPoint x="130" y="370" as="targetPoint" />
          </mxGeometry>
        </mxCell>
        <mxCell id="qZAM8YZkkt0BZnQUHDg2-23" value="Return data from secured resource" style="edgeLabel;html=1;align=center;verticalAlign=middle;resizable=0;points=[];labelBackgroundColor=none;fontColor=#EEEEEE;" vertex="1" connectable="0" parent="qZAM8YZkkt0BZnQUHDg2-22">
          <mxGeometry x="0.14" y="-8" relative="1" as="geometry">
            <mxPoint as="offset" />
          </mxGeometry>
        </mxCell>
        <mxCell id="qZAM8YZkkt0BZnQUHDg2-24" value="" style="curved=1;endArrow=classic;html=1;rounded=0;labelBackgroundColor=none;strokeColor=#0B4D6A;fontColor=default;" edge="1" parent="1">
          <mxGeometry width="50" height="50" relative="1" as="geometry">
            <mxPoint x="790" y="340" as="sourcePoint" />
            <mxPoint x="800" y="370" as="targetPoint" />
            <Array as="points">
              <mxPoint x="840" y="330" />
              <mxPoint x="850" y="370" />
            </Array>
          </mxGeometry>
        </mxCell>
        <mxCell id="qZAM8YZkkt0BZnQUHDg2-25" value="Validate token" style="text;html=1;align=center;verticalAlign=middle;resizable=0;points=[];autosize=1;strokeColor=none;fillColor=none;labelBackgroundColor=none;fontColor=#EEEEEE;" vertex="1" parent="1">
          <mxGeometry x="800" y="340" width="100" height="30" as="geometry" />
        </mxCell>
        <mxCell id="qZAM8YZkkt0BZnQUHDg2-27" value="Token expires after some time" style="text;html=1;align=center;verticalAlign=middle;whiteSpace=wrap;rounded=0;strokeColor=none;fillColor=#09555B;labelBackgroundColor=none;fontColor=#EEEEEE;" vertex="1" parent="1">
          <mxGeometry x="150" y="450" width="400" height="30" as="geometry" />
        </mxCell>
        <mxCell id="qZAM8YZkkt0BZnQUHDg2-29" value="" style="endArrow=classic;html=1;rounded=0;labelBackgroundColor=none;strokeColor=#0B4D6A;fontColor=default;" edge="1" parent="1">
          <mxGeometry width="50" height="50" relative="1" as="geometry">
            <mxPoint x="130" y="518" as="sourcePoint" />
            <mxPoint x="570" y="518" as="targetPoint" />
          </mxGeometry>
        </mxCell>
        <mxCell id="qZAM8YZkkt0BZnQUHDg2-31" value="Azure OpenAI service" style="rounded=0;whiteSpace=wrap;html=1;labelBackgroundColor=none;fillColor=#09555B;strokeColor=#BAC8D3;fontColor=#EEEEEE;" vertex="1" parent="1">
          <mxGeometry x="940" y="86" width="140" height="30" as="geometry" />
        </mxCell>
        <mxCell id="qZAM8YZkkt0BZnQUHDg2-32" value="" style="endArrow=classic;html=1;rounded=0;labelBackgroundColor=none;strokeColor=#0B4D6A;fontColor=default;" edge="1" parent="1">
          <mxGeometry width="50" height="50" relative="1" as="geometry">
            <mxPoint x="130" y="410" as="sourcePoint" />
            <mxPoint x="1010" y="410" as="targetPoint" />
          </mxGeometry>
        </mxCell>
        <mxCell id="qZAM8YZkkt0BZnQUHDg2-33" value="" style="endArrow=none;dashed=1;html=1;strokeWidth=1;rounded=0;entryX=0.5;entryY=1;entryDx=0;entryDy=0;labelBackgroundColor=none;strokeColor=#0B4D6A;fontColor=default;" edge="1" parent="1" target="qZAM8YZkkt0BZnQUHDg2-31">
          <mxGeometry width="50" height="50" relative="1" as="geometry">
            <mxPoint x="1010" y="620" as="sourcePoint" />
            <mxPoint x="1040" y="190" as="targetPoint" />
          </mxGeometry>
        </mxCell>
        <mxCell id="qZAM8YZkkt0BZnQUHDg2-36" value="Render the Graph API response, send it as a prompt along with API key" style="text;html=1;align=center;verticalAlign=middle;resizable=0;points=[];autosize=1;strokeColor=none;fillColor=none;labelBackgroundColor=none;fontColor=#EEEEEE;" vertex="1" parent="1">
          <mxGeometry x="360" y="388" width="400" height="30" as="geometry" />
        </mxCell>
        <mxCell id="qZAM8YZkkt0BZnQUHDg2-37" value="" style="endArrow=classic;html=1;rounded=0;labelBackgroundColor=none;strokeColor=#0B4D6A;fontColor=default;" edge="1" parent="1">
          <mxGeometry width="50" height="50" relative="1" as="geometry">
            <mxPoint x="1000" y="440" as="sourcePoint" />
            <mxPoint x="120" y="440" as="targetPoint" />
          </mxGeometry>
        </mxCell>
        <mxCell id="qZAM8YZkkt0BZnQUHDg2-38" value="Returns OpenAI response" style="text;html=1;align=center;verticalAlign=middle;resizable=0;points=[];autosize=1;strokeColor=none;fillColor=none;labelBackgroundColor=none;fontColor=#EEEEEE;" vertex="1" parent="1">
          <mxGeometry x="540" y="418" width="160" height="30" as="geometry" />
        </mxCell>
        <mxCell id="qZAM8YZkkt0BZnQUHDg2-43" value="" style="curved=1;endArrow=classic;html=1;rounded=0;labelBackgroundColor=none;strokeColor=#0B4D6A;fontColor=default;" edge="1" parent="1">
          <mxGeometry width="50" height="50" relative="1" as="geometry">
            <mxPoint x="1020" y="410" as="sourcePoint" />
            <mxPoint x="1030" y="440" as="targetPoint" />
            <Array as="points">
              <mxPoint x="1070" y="400" />
              <mxPoint x="1080" y="440" />
            </Array>
          </mxGeometry>
        </mxCell>
        <mxCell id="qZAM8YZkkt0BZnQUHDg2-44" value="Validates key" style="text;html=1;align=center;verticalAlign=middle;resizable=0;points=[];autosize=1;strokeColor=none;fillColor=none;labelBackgroundColor=none;fontColor=#EEEEEE;" vertex="1" parent="1">
          <mxGeometry x="1035" y="410" width="90" height="30" as="geometry" />
        </mxCell>
        <mxCell id="qZAM8YZkkt0BZnQUHDg2-45" value="Requests a new token, by providing refresh_token, app&#39;s client_id etc" style="text;html=1;align=center;verticalAlign=middle;resizable=0;points=[];autosize=1;strokeColor=none;fillColor=none;labelBackgroundColor=none;fontColor=#EEEEEE;" vertex="1" parent="1">
          <mxGeometry x="155" y="488" width="390" height="30" as="geometry" />
        </mxCell>
        <mxCell id="qZAM8YZkkt0BZnQUHDg2-49" value="" style="endArrow=classic;html=1;rounded=0;labelBackgroundColor=none;strokeColor=#0B4D6A;fontColor=default;" edge="1" parent="1">
          <mxGeometry width="50" height="50" relative="1" as="geometry">
            <mxPoint x="571.1111111111111" y="550" as="sourcePoint" />
            <mxPoint x="130" y="550" as="targetPoint" />
          </mxGeometry>
        </mxCell>
        <mxCell id="qZAM8YZkkt0BZnQUHDg2-50" value="Returns new token and a new refreah_token" style="edgeLabel;html=1;align=center;verticalAlign=middle;resizable=0;points=[];labelBackgroundColor=none;fontColor=#EEEEEE;" vertex="1" connectable="0" parent="qZAM8YZkkt0BZnQUHDg2-49">
          <mxGeometry x="0.2765" y="-8" relative="1" as="geometry">
            <mxPoint x="60" as="offset" />
          </mxGeometry>
        </mxCell>
        <mxCell id="qZAM8YZkkt0BZnQUHDg2-51" value="" style="endArrow=classic;html=1;rounded=0;labelBackgroundColor=none;strokeColor=#0B4D6A;fontColor=default;" edge="1" parent="1">
          <mxGeometry width="50" height="50" relative="1" as="geometry">
            <mxPoint x="140" y="590" as="sourcePoint" />
            <mxPoint x="781.8181818181819" y="590" as="targetPoint" />
          </mxGeometry>
        </mxCell>
        <mxCell id="qZAM8YZkkt0BZnQUHDg2-54" value="Calls Graph API with new token in Authorization header" style="edgeLabel;html=1;align=center;verticalAlign=middle;resizable=0;points=[];labelBackgroundColor=none;fontColor=#EEEEEE;" vertex="1" connectable="0" parent="qZAM8YZkkt0BZnQUHDg2-51">
          <mxGeometry x="-0.4934" y="16" relative="1" as="geometry">
            <mxPoint x="168" y="6" as="offset" />
          </mxGeometry>
        </mxCell>
        <mxCell id="qZAM8YZkkt0BZnQUHDg2-55" value="" style="endArrow=none;html=1;rounded=0;strokeWidth=4;labelBackgroundColor=none;strokeColor=#0B4D6A;fontColor=default;" edge="1" parent="1">
          <mxGeometry width="50" height="50" relative="1" as="geometry">
            <mxPoint x="366.8" y="240" as="sourcePoint" />
            <mxPoint x="366.8" y="190" as="targetPoint" />
          </mxGeometry>
        </mxCell>
        <mxCell id="qZAM8YZkkt0BZnQUHDg2-56" value="" style="endArrow=none;html=1;rounded=0;strokeWidth=4;labelBackgroundColor=none;strokeColor=#0B4D6A;fontColor=default;" edge="1" parent="1">
          <mxGeometry width="50" height="50" relative="1" as="geometry">
            <mxPoint x="574.6800000000001" y="310" as="sourcePoint" />
            <mxPoint x="574.6800000000001" y="260" as="targetPoint" />
          </mxGeometry>
        </mxCell>
        <mxCell id="qZAM8YZkkt0BZnQUHDg2-57" value="" style="endArrow=none;html=1;rounded=0;strokeWidth=4;labelBackgroundColor=none;strokeColor=#0B4D6A;fontColor=default;" edge="1" parent="1">
          <mxGeometry width="50" height="50" relative="1" as="geometry">
            <mxPoint x="779.6800000000001" y="380" as="sourcePoint" />
            <mxPoint x="779.6800000000001" y="330" as="targetPoint" />
          </mxGeometry>
        </mxCell>
        <mxCell id="qZAM8YZkkt0BZnQUHDg2-58" value="" style="endArrow=none;html=1;rounded=0;strokeWidth=4;labelBackgroundColor=none;strokeColor=#0B4D6A;fontColor=default;" edge="1" parent="1">
          <mxGeometry width="50" height="50" relative="1" as="geometry">
            <mxPoint x="574.6800000000001" y="560" as="sourcePoint" />
            <mxPoint x="574.6800000000001" y="510" as="targetPoint" />
          </mxGeometry>
        </mxCell>
        <mxCell id="qZAM8YZkkt0BZnQUHDg2-59" value="" style="endArrow=none;html=1;rounded=0;strokeWidth=4;labelBackgroundColor=none;strokeColor=#0B4D6A;fontColor=default;" edge="1" parent="1">
          <mxGeometry width="50" height="50" relative="1" as="geometry">
            <mxPoint x="1009.6800000000001" y="450" as="sourcePoint" />
            <mxPoint x="1009.6800000000001" y="400" as="targetPoint" />
          </mxGeometry>
        </mxCell>
        <mxCell id="qZAM8YZkkt0BZnQUHDg2-60" value="" style="endArrow=none;html=1;rounded=0;strokeWidth=4;labelBackgroundColor=none;strokeColor=#0B4D6A;fontColor=default;" edge="1" parent="1">
          <mxGeometry width="50" height="50" relative="1" as="geometry">
            <mxPoint x="780" y="630" as="sourcePoint" />
            <mxPoint x="780" y="580" as="targetPoint" />
          </mxGeometry>
        </mxCell>
      </root>
    </mxGraphModel>
  </diagram>
</mxfile>
